<svg width="48" height="48" viewBox="0 0 48 48" fill="none" xmlns="http://www.w3.org/2000/svg">
<rect x="1" y="1" width="46" height="46" stroke="white" stroke-width="2"/>
<path d="M24.8906 35.4062C25.2031 35.4062 25.3594 35.1406 25.3594 34.6094C25.3594 34.0781 25.1354 33.2344 24.6875 32.0781C24.2396 30.9115 23.5521 29.4271 22.625 27.625C21.6979 25.8229 20.6771 23.9427 19.5625 21.9844C18.4583 20.026 17.4688 18.2448 16.5938 16.6406C19.75 14.651 22.2083 12.4427 23.9688 10.0156C26.3125 10.8594 28.8802 11.7083 31.6719 12.5625C30.5885 13.9583 29.4948 15.3438 28.3906 16.7188C28.0573 16.2083 27.2292 15.6823 25.9062 15.1406C24.5938 14.599 23.6979 14.3281 23.2188 14.3281C22.7396 14.3281 22.4375 14.401 22.3125 14.5469C22.1875 14.6927 22.125 14.8802 22.125 15.1094C22.125 15.8177 22.5469 17.1875 23.3906 19.2188C23.9219 19.25 24.776 19.2656 25.9531 19.2656C27.1302 19.2656 28.8229 19.1302 31.0312 18.8594C30.8021 20.1094 30.5938 21.349 30.4062 22.5781L24.7656 22.2812C26.2865 25.5104 27.9062 28.3646 29.625 30.8438C27.8438 33.2917 25.6979 36.276 23.1875 39.7969C20.6458 38.5469 18.3906 36.4531 16.4219 33.5156C16.901 32.3177 17.5312 30.7292 18.3125 28.75C19.375 30.375 20.6198 31.8906 22.0469 33.2969C23.474 34.7031 24.4219 35.4062 24.8906 35.4062Z" fill="white"/>
</svg>
